<?xml version="1.0" encoding="utf-8"?>
<!-- Generator: Adobe Illustrator 16.0.0, SVG Export Plug-In . SVG Version: 6.00 Build 0)  -->
<!DOCTYPE svg PUBLIC "-//W3C//DTD SVG 1.1//EN" "http://www.w3.org/Graphics/SVG/1.1/DTD/svg11.dtd">
<svg version="1.1" id="Layer_1" xmlns="http://www.w3.org/2000/svg" xmlns:xlink="http://www.w3.org/1999/xlink" x="0px" y="0px"
	 width="422px" height="391px" viewBox="0 0 422 391" enable-background="new 0 0 422 391" xml:space="preserve">
<g>
	<path fill-rule="evenodd" clip-rule="evenodd" fill="#FFFFFF" d="M236.162,9.415c-0.002-0.624,0.059-1.255-0.021-1.869
		c-0.104-0.792-0.398-1.8-1.25-1.737c-0.865,0.063-0.594,1.138-0.605,1.781c-0.049,2.814-0.031,5.629-0.036,8.444
		c-0.927-0.137-1.864-0.222-2.779-0.417c-15.177-3.24-29.582,7.828-30.324,23.323c-0.388,8.077,2.002,15.309,6.702,21.828
		c-9.686,0.019-19.372,0.049-29.058,0.055c-12.429,0.008-24.579,1.816-36.375,5.76c-7.58,2.534-14.754,6.111-22.378,8.583
		c-14.554,4.719-28.844,10.119-41.917,18.266c-18.225,11.357-33.461,26.079-47.182,42.415
		c-9.352,11.134-15.508,23.902-18.106,38.298c-1.398,7.743-1.916,15.598-3.031,23.377c-0.527,3.673-1.557,7.444,0.939,10.902
		c0.381,0.529-0.13,0.999-0.622,0.83c-2.439-0.834-2.627,1.151-3.209,2.537c-0.737,1.755-0.218,3.561-0.022,5.352
		c0.359,3.294,0.749,3.611,4.043,3.739c9.6,0.373,19.202,0.171,28.803,0.17c3.345,0,3.97,0.516,4.577,3.717
		c1.973,10.412,2.859,20.996,5.177,31.361c3.898,17.437,8.891,34.448,17.929,50.034c7.534,12.991,16.102,25.16,27.651,34.971
		c5.658,4.805,12.397,8.004,18.394,12.289c6.556,4.686,13.972,7.457,21.57,9.414c18.348,4.726,36.494,10.496,55.591,11.787
		c6.745,0.457,13.45,1.641,20.195,1.903c9.554,0.372,19.11-0.325,28.651-0.941c1.715-0.11,3.444-0.305,5.121-0.673
		c8.044-1.768,16.091-3.531,24.102-5.445c7.058-1.688,14.238-2.842,20.846-6.248c7.45-3.841,15.203-7.092,22.742-10.766
		c3.545-1.729,7.056-3.26,10.168-6.136c9.846-9.1,19.57-18.261,27.605-29.04c10.455-14.023,18.963-29.092,22.659-46.368
		c3.781-17.671,6.543-35.524,8.044-53.553c0.273-3.298,1.34-4.265,4.635-4.274c5.75-0.017,11.499-0.005,17.248-0.005
		c0.551,0,1.104,0.012,1.654-0.003c5.895-0.149,8.939-2.963,9.048-8.848c0.146-7.95,0.225-15.912-0.039-23.856
		c-0.25-7.533-0.744-15.113-3.035-22.356c-6.353-20.083-17.917-36.914-32.95-51.42c-17.527-16.914-38.91-27.559-61.45-35.654
		c-15.731-5.651-32.431-7.944-49.025-10.116c6.513-9.491,7.198-20.218,5.658-31.019c-1.646-11.552-12.55-21.63-24.452-20.386
		c-1.001-2.827-2.25-3.651-5.005-3.207c-1.398,0.226-2.632,0.872-3.837,1.621C238.238,8.436,237.447,9.418,236.162,9.415z"/>
	<path fill-rule="evenodd" clip-rule="evenodd" fill="#242424" d="M266.839,60.826c16.595,2.171,33.294,4.465,49.025,10.116
		c22.54,8.096,43.923,18.741,61.45,35.654c15.033,14.506,26.598,31.337,32.95,51.42c2.291,7.243,2.785,14.824,3.035,22.356
		c0.264,7.944,0.186,15.906,0.039,23.856c-0.108,5.885-3.153,8.699-9.048,8.848c-0.551,0.015-1.104,0.003-1.654,0.003
		c-5.749,0-11.498-0.012-17.248,0.005c-3.295,0.009-4.361,0.976-4.635,4.274c-1.501,18.029-4.263,35.882-8.044,53.553
		c-3.696,17.276-12.204,32.345-22.659,46.368c-8.035,10.779-17.76,19.94-27.605,29.04c-3.112,2.876-6.623,4.406-10.168,6.136
		c-7.539,3.674-15.292,6.925-22.742,10.766c-6.607,3.406-13.788,4.561-20.846,6.248c-8.011,1.914-16.058,3.678-24.102,5.445
		c-1.677,0.368-3.406,0.563-5.121,0.673c-9.541,0.616-19.098,1.313-28.651,0.941c-6.745-0.263-13.45-1.446-20.195-1.903
		c-19.097-1.291-37.243-7.062-55.591-11.787c-7.598-1.957-15.014-4.729-21.57-9.414c-5.997-4.285-12.736-7.484-18.394-12.289
		c-11.549-9.811-20.117-21.979-27.651-34.971c-9.038-15.586-14.031-32.598-17.929-50.034c-2.318-10.366-3.204-20.949-5.177-31.361
		c-0.607-3.202-1.232-3.718-4.577-3.717c-9.602,0.001-19.203,0.203-28.803-0.17c-3.294-0.128-3.684-0.444-4.043-3.739
		c-0.196-1.792-0.714-3.597,0.022-5.352c0.582-1.386,0.77-3.371,3.209-2.537c0.492,0.168,1.003-0.301,0.622-0.83
		c-2.497-3.458-1.467-7.229-0.939-10.902c1.116-7.779,1.633-15.634,3.031-23.377c2.598-14.396,8.755-27.165,18.106-38.298
		c13.721-16.336,28.957-31.057,47.182-42.415c13.073-8.146,27.363-13.547,41.917-18.266c7.624-2.471,14.798-6.048,22.378-8.583
		c11.797-3.944,23.947-5.751,36.375-5.76c9.686-0.006,19.372-0.036,29.057-0.055c0.873,0.668,1.729,1.362,2.623,2.002
		c7.271,5.21,16.396,5.902,22.657,1.366c2.26-1.636,3.891-1.71,6.266-0.326c5.417,3.161,11.258,4.788,17.581,3.188
		C260.904,66.004,263.985,63.579,266.839,60.826z M84.868,220.583c0,0.055,0,0.11,0,0.166c-9.214,0-18.428,0.028-27.641-0.028
		c-1.584-0.01-2.302,0.603-1.979,2.081c1.043,4.764,1.149,9.652,1.937,14.435c2.722,16.526,6.564,32.779,12.673,48.426
		c10.923,27.977,29.208,49.262,56.585,62.331c11.996,5.727,24.644,9.343,37.59,12.062c9.824,2.063,19.71,3.771,29.752,4.221
		c7.695,0.345,15.403,0.467,23.107,0.534c9.123,0.077,18.262,0.364,27.356-0.619c10.225-1.105,20.171-3.575,29.975-6.583
		c9.398-2.883,18.932-5.407,27.558-10.398c10.736-6.213,19.637-14.604,28.223-23.384c10.854-11.099,19.411-23.783,26.076-37.786
		c6.152-12.93,7.649-26.994,10.035-40.832c1.518-8.804,2.625-17.672,3.529-26.568c0.451-4.437-0.045-5.234-4.463-5.051
		c-6.434,0.267-12.865,0.743-19.302,0.817c-18.8,0.217-37.601,0.137-56.392,0.957c-9.971,0.436-19.947,0.721-29.925,0.948
		c-10.618,0.241-21.239,0.299-31.858,0.503c-7.313,0.141-14.627,0.228-21.938,0.372c-17.76,0.349-35.473,1.478-53.203,2.392
		c-12.164,0.627-24.355,0.794-36.537,0.974C105.644,220.704,95.255,220.583,84.868,220.583z M219.486,205.33
		c-1.615-2.844-1.406-5.659-0.962-8.606c0.829-5.495,1.399-11.029,2.061-16.549c0.688-5.752,1.252-11.521,2.058-17.256
		c1.283-9.136,2.706-18.252,4.098-27.373c1.189-7.806,2.473-15.599,3.611-23.412c0.857-5.883,2.168-11.712,2.498-17.66
		c0.438-7.893,1.218-15.644,6.529-22.047c-0.898-0.65-1.761-0.666-2.637-0.665c-21.421,0.004-42.842-0.055-64.263,0.053
		c-4.224,0.021-7.936,1.607-10.524,5.286c-2.126,3.021-4.502,5.847-6.972,8.608c-3.925,4.389-7.994,8.662-11.162,13.69
		c-8.264,13.118-14.681,27.23-21.926,40.889c-9.044,17.051-11.702,35.876-13.322,54.851c-0.378,4.434-0.323,8.958-2.351,13.092
		c-0.573,1.168-0.229,1.501,0.988,1.478c2.903-0.055,5.801-0.182,8.702-0.314c7.458-0.339,14.928-0.039,22.402-0.451
		c7.679-0.423,15.375-0.648,23.064-0.965c10.434-0.429,20.862-0.941,31.292-1.451c6.593-0.322,13.199-0.37,19.8-0.546
		C214.738,205.921,217.018,205.959,219.486,205.33z M248.059,71.799c2.088,5.584,1.053,7.159-0.695,8.765
		c-1.941,1.783-2.498,3.932-2.58,6.308c-0.313,9.11-2.405,17.984-3.545,26.984c-1.039,8.219-2.392,16.399-3.632,24.593
		c-1.311,8.658-2.741,17.298-3.95,25.97c-1.014,7.284-1.936,14.587-2.616,21.908c-0.567,6.099-1.05,12.183-3.493,17.885
		c-0.686,1.601,0.026,1.773,1.293,1.702c2.113-0.119,4.225-0.272,6.339-0.353c5.652-0.216,11.31-0.204,16.966-0.378
		c12.406-0.383,24.82-0.549,37.228-1.015c5.345-0.201,10.703-0.052,16.056-0.079c3.146-0.016,4.156-1.275,3.329-4.326
		c-0.323-1.19-0.366-2.317-0.081-3.476c1.979-8.026,2.664-16.225,3.009-24.438c0.271-6.445,0.206-12.911,0.091-19.364
		c-0.123-6.959,0.407-13.908-1.312-20.845c-4.179-16.862-9.919-33.002-19.94-47.38c-1.575-2.26-2.915-4.679-3.68-7.333
		c-0.436-1.512-1.262-2.119-2.775-2.377c-4.787-0.816-9.593-1.428-14.416-1.993C262.525,71.723,255.402,71.732,248.059,71.799z
		 M147.009,77.229c-1.688-0.244-2.902,0.26-4.046,0.883c-4.292,2.337-8.867,3.961-13.485,5.5
		c-12.418,4.137-24.858,8.243-36.569,14.179c-11.426,5.792-21.723,13.225-31.186,21.852c-9.323,8.5-18.005,17.6-25.766,27.541
		c-9.885,12.663-12.096,27.947-14.321,43.177c-0.94,6.439,0.368,13.237-3.522,19.329c27.445,0,54.487,0,81.877,0
		c-1.752-1.987-3.227-3.807-3.235-6.337c-0.017-4.878,0.446-9.738,1.138-14.538c1.147-7.967,2.635-15.887,4.088-23.807
		c1.875-10.222,4.765-20.103,9.957-29.213c2.953-5.182,5.639-10.502,8.174-15.911c5.78-12.333,12.383-24.199,20.801-34.973
		C142.875,82.401,144.872,79.92,147.009,77.229z M300.568,78.66c0.025,1.203,0.57,1.958,1.094,2.747
		c5.659,8.539,10.125,17.683,13.953,27.172c6.168,15.291,6.758,31.435,7.496,47.567c0.299,6.533-0.19,13.051-0.496,19.566
		c-0.176,3.746-0.818,7.469-1.229,11.205c-0.506,4.595-1.443,9.11-2.432,13.621c-0.318,1.448-0.053,2.622,1.898,2.756
		c0.924,0.063,1.854,0.28,2.798,0.256c5.577-0.143,11.151,0.06,16.738-0.286c7.608-0.469,15.244-0.133,22.876-0.456
		c11.863-0.503,23.752-0.435,35.629-0.597c3.025-0.042,3.693-0.66,3.646-3.796c-0.105-6.917,0.224-13.833-0.415-20.753
		c-0.657-7.111-1.129-14.281-3.836-20.942c-9.41-23.167-24.665-41.627-45.454-55.505c-9.511-6.349-19.915-11.005-30.247-15.794
		C315.614,82.186,308.568,79.194,300.568,78.66z"/>
	<path fill-rule="evenodd" clip-rule="evenodd" fill="#D24748" d="M266.839,60.826c-2.854,2.753-5.935,5.178-9.865,6.172
		c-6.323,1.6-12.164-0.027-17.581-3.188c-2.375-1.385-4.006-1.31-6.266,0.326c-6.262,4.536-15.387,3.844-22.657-1.366
		c-0.894-0.641-1.75-1.334-2.623-2.002c-4.699-6.52-7.089-13.751-6.701-21.828c0.742-15.495,15.147-26.563,30.324-23.323
		c0.915,0.195,1.853,0.28,2.779,0.417c0.335,1.122,0.778,2.226,0.976,3.372c0.219,1.263,0.13,2.54-1.166,3.321
		c-1.264,0.761-2.402,0.325-3.521-0.371c-0.907-0.563-1.642-1.448-2.811-1.589c-0.036,3.238,0.776,4.141,3.829,4.215
		c1.49,0.036,2.99,0.097,4.47-0.04c3.628-0.334,6.696-1.635,8.226-5.275c0.176-0.415,0.521-0.877,0.07-1.294
		c-0.553-0.514-1.062-0.067-1.448,0.261c-0.837,0.708-1.563,1.547-2.403,2.25c-1.282,1.07-2.335,0.75-2.945-0.751
		c-0.641-1.573-0.655-3.195-0.029-4.798c5.143,0.496,8.156-1.193,10.549-5.912c11.902-1.245,22.806,8.833,24.452,20.386
		C274.037,40.608,273.352,51.335,266.839,60.826z"/>
	<path fill-rule="evenodd" clip-rule="evenodd" fill="#008B64" d="M248.045,9.421c-2.393,4.719-5.406,6.408-10.547,5.914
		c-2.104-1.598-1.48-3.813-1.336-5.92c1.285,0.004,2.076-0.979,3.041-1.579c1.205-0.749,2.438-1.396,3.837-1.621
		C245.795,5.77,247.044,6.595,248.045,9.421z"/>
	<path fill-rule="evenodd" clip-rule="evenodd" fill="#7E4C39" d="M236.162,9.415c-0.145,2.107-0.768,4.323,1.336,5.92
		c-0.628,1.602-0.613,3.224,0.027,4.797c0.61,1.502,1.663,1.822,2.945,0.751c0.841-0.702,1.566-1.541,2.403-2.25
		c0.387-0.328,0.896-0.775,1.448-0.261c0.45,0.417,0.105,0.88-0.07,1.294c-1.529,3.64-4.598,4.941-8.226,5.275
		c-1.479,0.137-2.979,0.076-4.47,0.04c-3.053-0.074-3.865-0.977-3.829-4.215c1.169,0.142,1.903,1.026,2.811,1.589
		c1.118,0.695,2.257,1.132,3.521,0.371c1.296-0.782,1.385-2.058,1.166-3.321c-0.197-1.146-0.641-2.25-0.976-3.372
		c0.005-2.814-0.013-5.63,0.036-8.444c0.012-0.644-0.26-1.718,0.605-1.781c0.852-0.063,1.146,0.945,1.25,1.737
		C236.221,8.159,236.16,8.791,236.162,9.415z"/>
	<path fill-rule="evenodd" clip-rule="evenodd" fill="#FFFFFF" d="M84.868,220.583c10.387,0,20.776,0.122,31.161-0.032
		c12.182-0.18,24.373-0.346,36.537-0.974c17.729-0.914,35.443-2.042,53.203-2.392c7.311-0.144,14.625-0.231,21.938-0.372
		c10.619-0.205,21.24-0.262,31.858-0.503c9.978-0.227,19.954-0.512,29.925-0.948c18.791-0.82,37.592-0.74,56.392-0.957
		c6.437-0.075,12.868-0.551,19.302-0.817c4.418-0.183,4.914,0.614,4.463,5.051c-0.904,8.896-2.012,17.764-3.529,26.568
		c-2.386,13.838-3.883,27.902-10.035,40.832c-6.665,14.003-15.223,26.688-26.076,37.786c-8.586,8.78-17.486,17.171-28.223,23.384
		c-8.626,4.991-18.159,7.516-27.558,10.398c-9.804,3.008-19.75,5.478-29.975,6.583c-9.095,0.983-18.233,0.696-27.356,0.619
		c-7.704-0.067-15.412-0.189-23.107-0.534c-10.042-0.45-19.928-2.158-29.752-4.221c-12.947-2.719-25.595-6.335-37.59-12.062
		c-27.377-13.069-45.662-34.354-56.585-62.331c-6.108-15.646-9.951-31.9-12.673-48.426c-0.788-4.783-0.894-9.671-1.937-14.435
		c-0.324-1.478,0.394-2.091,1.979-2.081c9.213,0.056,18.427,0.028,27.641,0.028C84.868,220.692,84.868,220.638,84.868,220.583z
		 M208.227,319.536c-0.081,2.14,0.055,4.251,0.582,6.33c1.773,6.993,8.416,11.967,14.734,10.921
		c4.242-0.702,8.133-2.396,11.666-4.818c3.187-2.188,5.16-5.252,5.787-9.092c0.957-5.857-0.019-11.415-2.814-16.638
		c-1.059-1.979-2.544-3.566-4.623-4.561c-5.959-2.85-15.322-1.332-20.114,3.211C209.206,308.906,208.292,314.063,208.227,319.536z
		 M163.95,277.188c0.046-6.202-4.763-11.182-10.864-11.248c-6.236-0.068-11.34,4.904-11.364,11.071
		c-0.023,5.969,5.129,11.183,11.082,11.214C158.868,288.256,163.904,283.27,163.95,277.188z M278.529,257.565
		c-6.273-0.038-11.078,4.681-11.148,10.949c-0.068,6.148,4.811,11.093,10.998,11.146c6.173,0.053,11.133-4.841,11.156-11.007
		C289.559,262.42,284.776,257.603,278.529,257.565z"/>
	<path fill-rule="evenodd" clip-rule="evenodd" fill="#868686" d="M219.486,205.33c-2.469,0.629-4.748,0.591-7.018,0.652
		c-6.601,0.176-13.207,0.224-19.8,0.546c-10.43,0.51-20.858,1.022-31.292,1.451c-7.688,0.316-15.385,0.542-23.064,0.965
		c-7.474,0.412-14.944,0.111-22.402,0.451c-2.901,0.132-5.798,0.259-8.702,0.314c-1.217,0.023-1.561-0.31-0.988-1.478
		c2.028-4.133,1.973-8.658,2.351-13.092c1.62-18.975,4.278-37.799,13.322-54.851c7.245-13.659,13.662-27.771,21.926-40.889
		c3.168-5.028,7.237-9.301,11.162-13.69c2.47-2.761,4.846-5.587,6.972-8.608c2.589-3.679,6.3-5.265,10.524-5.286
		c21.421-0.108,42.842-0.049,64.263-0.053c0.876,0,1.738,0.015,2.637,0.665c-5.312,6.403-6.092,14.154-6.529,22.047
		c-0.33,5.947-1.641,11.776-2.498,17.66c-1.139,7.813-2.422,15.606-3.611,23.412c-1.392,9.12-2.814,18.237-4.098,27.373
		c-0.806,5.735-1.369,11.504-2.058,17.256c-0.661,5.52-1.231,11.054-2.061,16.549C218.08,199.671,217.871,202.486,219.486,205.33z"
		/>
	<path fill-rule="evenodd" clip-rule="evenodd" fill="#868686" d="M248.059,71.799c7.344-0.067,14.467-0.076,21.594,0.758
		c4.823,0.565,9.629,1.177,14.416,1.993c1.514,0.258,2.34,0.865,2.775,2.377c0.765,2.654,2.104,5.073,3.68,7.333
		c10.021,14.377,15.762,30.518,19.94,47.38c1.719,6.937,1.188,13.886,1.312,20.845c0.115,6.453,0.18,12.919-0.091,19.364
		c-0.345,8.212-1.03,16.412-3.009,24.438c-0.285,1.159-0.242,2.286,0.081,3.476c0.827,3.051-0.184,4.311-3.329,4.326
		c-5.353,0.027-10.711-0.122-16.056,0.079c-12.407,0.466-24.821,0.632-37.228,1.015c-5.656,0.174-11.313,0.162-16.966,0.378
		c-2.114,0.081-4.226,0.233-6.339,0.353c-1.267,0.071-1.979-0.102-1.293-1.702c2.443-5.702,2.926-11.787,3.493-17.885
		c0.681-7.321,1.603-14.624,2.616-21.908c1.209-8.671,2.64-17.312,3.95-25.97c1.24-8.193,2.593-16.374,3.632-24.593
		c1.14-9,3.232-17.874,3.545-26.984c0.082-2.376,0.639-4.525,2.58-6.308C249.111,78.958,250.146,77.383,248.059,71.799z"/>
	<path fill-rule="evenodd" clip-rule="evenodd" fill="#868686" d="M147.009,77.229c-2.138,2.691-4.135,5.173-6.096,7.682
		c-8.418,10.773-15.021,22.64-20.801,34.973c-2.535,5.409-5.221,10.729-8.174,15.911c-5.192,9.111-8.083,18.992-9.957,29.213
		c-1.453,7.92-2.94,15.84-4.088,23.807c-0.691,4.8-1.154,9.66-1.138,14.538c0.009,2.53,1.483,4.35,3.235,6.337
		c-27.391,0-54.433,0-81.877,0c3.89-6.092,2.582-12.89,3.522-19.329c2.225-15.23,4.436-30.514,14.321-43.177
		c7.761-9.941,16.443-19.041,25.766-27.541c9.463-8.627,19.76-16.061,31.186-21.852c11.711-5.937,24.151-10.042,36.569-14.179
		c4.618-1.539,9.193-3.163,13.485-5.5C144.107,77.489,145.321,76.985,147.009,77.229z"/>
	<path fill-rule="evenodd" clip-rule="evenodd" fill="#868686" d="M300.568,78.66c8,0.534,15.046,3.526,22.02,6.759
		c10.332,4.789,20.736,9.445,30.247,15.794c20.789,13.878,36.044,32.338,45.454,55.505c2.707,6.661,3.179,13.831,3.836,20.942
		c0.639,6.92,0.31,13.835,0.415,20.753c0.048,3.137-0.62,3.755-3.646,3.796c-11.877,0.162-23.766,0.094-35.629,0.597
		c-7.632,0.323-15.268-0.013-22.876,0.456c-5.587,0.345-11.161,0.143-16.738,0.286c-0.943,0.024-1.874-0.192-2.798-0.256
		c-1.951-0.134-2.217-1.308-1.898-2.756c0.988-4.51,1.926-9.025,2.432-13.621c0.41-3.736,1.053-7.459,1.229-11.205
		c0.306-6.515,0.795-13.034,0.496-19.566c-0.738-16.132-1.328-32.276-7.496-47.567c-3.828-9.489-8.294-18.633-13.953-27.172
		C301.139,80.618,300.594,79.863,300.568,78.66z"/>
	<path fill-rule="evenodd" clip-rule="evenodd" fill="#3A3A3A" d="M208.227,319.536c0.065-5.474,0.979-10.63,5.217-14.646
		c4.792-4.543,14.155-6.061,20.114-3.211c2.079,0.994,3.564,2.581,4.623,4.561c2.796,5.223,3.771,10.78,2.814,16.638
		c-0.627,3.84-2.601,6.904-5.787,9.092c-3.533,2.423-7.424,4.116-11.666,4.818c-6.318,1.046-12.96-3.928-14.734-10.921
		C208.282,323.787,208.146,321.676,208.227,319.536z M227.457,304.3c-8.336-0.005-12.949,3.169-14.613,9.987
		c-0.998,4.092-0.693,8.26,0.344,12.299c0.678,2.639,2.623,4.455,5.154,5.423c6.687,2.558,18.381-2.435,19.006-10.773
		c0.302-4.011-0.271-7.798-1.829-11.442C233.932,306.082,231.447,303.615,227.457,304.3z"/>
	<path fill-rule="evenodd" clip-rule="evenodd" fill="#242424" d="M163.95,277.188c-0.046,6.082-5.082,11.068-11.146,11.037
		c-5.952-0.031-11.105-5.245-11.082-11.214c0.024-6.167,5.128-11.14,11.364-11.071C159.187,266.006,163.996,270.985,163.95,277.188z
		"/>
	<path fill-rule="evenodd" clip-rule="evenodd" fill="#242424" d="M278.529,257.565c6.247,0.038,11.029,4.855,11.006,11.087
		c-0.023,6.166-4.983,11.06-11.156,11.007c-6.188-0.053-11.066-4.997-10.998-11.146
		C267.451,262.246,272.256,257.527,278.529,257.565z"/>
	<path fill-rule="evenodd" clip-rule="evenodd" fill="#FFFFFF" d="M227.457,304.3c3.99-0.685,6.475,1.782,8.062,5.493
		c1.558,3.645,2.131,7.432,1.829,11.442c-0.625,8.339-12.319,13.331-19.006,10.773c-2.531-0.968-4.477-2.784-5.154-5.423
		c-1.037-4.039-1.342-8.207-0.344-12.299C214.508,307.469,219.121,304.295,227.457,304.3z"/>
</g>
</svg>
