<?xml version="1.0" standalone="no"?>
<!DOCTYPE svg PUBLIC "-//W3C//DTD SVG 1.1//EN" "http://www.w3.org/Graphics/SVG/1.1/DTD/svg11.dtd">
<svg xmlns="http://www.w3.org/2000/svg" xmlns:xlink="http://www.w3.org/1999/xlink" version="1.1" id="Layer_1" x="0px" y="0px" width="503.9750061035156" height="527.9739990234375" viewBox="0 0 503.975 527.974" enable-background="new 0 0 503.975 527.974" xml:space="preserve">
<g>
	<path fill-rule="evenodd" clip-rule="evenodd" fill="#161515" d="M98.394,157.797c-1.284-3.343-0.201-6.709,0.182-9.981   c0.792-6.774,1.284-13.604,3.316-20.21c2.944-9.573,8.191-17.634,14.948-24.942c9.412-10.178,19.39-19.629,31.434-26.667   c9.595-5.606,20.032-9.257,30.518-12.706c4.02-1.323,7.757-3.252,11.709-4.655c8.709-3.093,17.74-4.468,26.976-4.499   c6.857-0.022,13.715-0.024,20.573-0.036c5.488,4.937,13.418,6.093,18.658,1.578c0.828-0.712,1.427-0.589,2.426-0.004   c6.089,3.56,13.549,5.39,20.025-1.475c8.859,0.619,17.408,3.015,26.099,4.593c10.297,1.87,19.441,6.777,28.676,11.369   c20.313,10.101,35.111,25.631,44.424,46.23c3.28,7.256,4.108,15.234,4.362,23.172c0.161,5.065,0.057,10.14,0.022,15.21   c-0.032,4.592-2.121,6.625-6.831,6.667c-4.331,0.037-8.661,0.047-12.992,0.005c-2.165-0.021-3.046,0.745-3.226,3.109   c-0.921,12.101-2.943,24.057-5.245,35.961c-1.964,10.168-6.312,19.259-11.883,28.001c-6.502,10.203-14.665,18.729-23.718,26.558   c-0.52,0.45-1.316,0.756-1.386,1.829c1.631-0.003,2.799,0.984,4.097,1.836c23.327,15.295,46.309,31.188,72.673,41.143   c7.569,2.857,15.42,4.971,22.712,8.561c-2.548,3.728-5.096,7.455-7.644,11.184c-14.857,2.155-29.048,7.04-43.574,10.55   c-11.912,2.878-23.306,7.217-34.886,11.055c-2.14,0.71-1.771,2.08-1.722,3.438c0.304,8.546,1.792,16.981,2.375,25.516   c0.69,10.09,1.845,20.158,3.562,30.143c0.659,3.836,1.981,7.553,1.849,11.527c-0.182,5.511-2.539,7.664-7.078,6.818   c-0.51-0.095-1.063,0.052-1.58-0.023c-2.851-0.414-2.801,0.617-2.235,3.135c2.773,12.351,7.582,24.06,11.128,36.164   c2.156,7.354,6.016,14.109,9.641,20.878c0.987,1.845,1.576,3.702,1.217,5.751c-0.435,2.482-1.893,3.904-4.523,3.996   c-3.687,0.129-7.384,0.563-11.054,0.384c-3.05-0.148-5.247,0.534-7.142,3.093c-3.947,5.329-8.332,10.313-10.127,16.967   c-1.108,4.107-4.287,5.212-7.775,2.713c-7.201-5.156-14.789-10.088-19.918-17.392c-2.233-3.18-4.458-2.762-7.061-2.498   c-13.48,1.365-13.473,0.637-20.48-11.367c-2.203-3.774-4.087-7.735-6.578-12.492c-0.465,5.511-0.849,10.055-1.23,14.598   c-0.062,0.735-0.109,1.474-0.179,2.208c-0.679,7.133-2.18,8.722-9.288,8.429c-10.115-0.419-20.214-1.199-30.318-1.859   c-1.472-0.097-2.7-0.384-3.153,1.739c-0.4,1.875-2.463,2.501-3.943,3.432c-6.781,4.256-13.646,8.381-20.427,12.639   c-1.775,1.114-3.412,2.472-5.021,3.825c-3.672,3.087-7.897,1.822-8.808-2.909c-1.236-6.417-1.88-12.934-1.938-19.468   c-0.02-2.248-0.604-3.094-2.895-3.402c-7.425-1.002-14.814-2.273-22.356-1.886c-1.771,0.092-3.456-0.285-4.311-2.037   c-0.865-1.773-0.406-3.46,0.669-5.062c9.489-14.136,17.257-29.175,23.539-44.988c1.542-3.881,2.33-7.823,1.642-12.05   c-0.242-1.486-0.45-2.085-2.146-2.162c-5.225-0.236-6.157-1.321-5.925-6.64c0.229-5.28,1.213-10.468,2.187-15.651   c1.192-6.349,0.763-12.837,1.597-19.215c1.4-10.721,1.986-21.546,4.056-32.179c0.359-1.842-0.25-2.351-1.985-2.639   c-16.215-2.7-32.43-5.415-48.618-8.272c-14.001-2.472-27.754-6.229-41.86-8.179c-0.443-4.005-0.886-8.008-1.33-12.013   c19.542-8.428,38.351-18.271,56.789-28.893c12.508-7.205,25.02-14.363,36.717-22.858c1.432-1.04,3.108-1.74,4.709-2.619   c-0.462-1.024-1.622-1.412-2.572-1.971c-12.492-7.354-20.909-18.393-28.035-30.667c-7.518-12.949-11.173-27.12-13.941-41.671   c-1.042-5.481-1.356-11.049-2.554-16.493c-0.356-1.615-1.1-2.096-2.769-2.068c-6.542,0.111-13.089,0.119-19.63-0.028   c-1.375-0.03-3.732,0.293-3.818-1.688c-0.1-2.302-1.087-5.101,1.553-6.895c0.29,0.393,0.811,0.524,1.075,0.262   C99.258,158.215,98.529,158.1,98.394,157.797z M303.518,66.733c-0.137-0.066-0.276-0.134-0.415-0.201   c0.078,0.125,0.156,0.25,0.234,0.375c0.004,1.172,0.941,1.858,1.478,2.737c6.902,11.311,12.288,23.518,13.436,36.57   c1.344,15.273,1.565,30.813-1.885,46.01c-0.559,2.459,0.445,2.333,2.106,2.354c18.17,0.228,36.321-0.827,54.487-0.82   c1.744,0,2.126-0.668,2.093-2.238c-0.095-4.436,0.17-8.891-0.145-13.308c-0.463-6.522-1.087-13.151-3.854-19.134   c-8.276-17.893-21.08-31.656-38.569-40.921c-2.982-1.581-6.016-3.072-9.084-4.479C316.997,70.741,310.737,67.362,303.518,66.733z    M314.335,262.858c-0.298,0.723-0.508,1.098-0.613,1.501c-3.823,14.639-9.729,28.522-15.576,42.412   c-2.447,5.812-6.136,6.729-11.341,3.161c-4.612-3.161-9.36-6.219-13.533-9.905c-8.011-7.077-16.699-13.245-25.163-19.719   c-1.292-0.987-2.481-1.269-4.07-0.945c-16.169,3.289-30.993,9.523-44.078,19.722c-2.148,1.675-4.348,3.342-6.911,4.436   c-5.015,2.142-8.526,0.779-10.122-4.438c-2.898-9.473-5.606-19.006-8.269-28.549c-1.079-3.864-1.402-4.112-4.944-1.948   c-1.349,0.824-2.614,1.785-3.919,2.683c-6.873,4.724-13.711,9.501-20.982,13.609c-9.738,5.502-19.488,10.981-29.226,16.483   c-0.839,0.474-2.141,0.608-1.522,2.206c2.586,6.678,2.023,13.695,2.027,20.628c0.001,2.163,0.782,2.98,2.817,3.25   c5.328,0.709,10.647,1.498,15.953,2.357c10.502,1.7,20.833,4.607,31.457,5.317c6.926,0.462,7.677,3.775,6.904,8.893   c-0.55,3.636-1.063,7.248-1.407,10.924c-1.653,17.624-3.305,35.262-6.287,52.723c-0.543,3.18,0.243,3.651,3.141,3.625   c29.464-0.259,58.931-0.445,88.397-0.551c22.82-0.082,45.64-0.014,68.46-0.019c3.623-0.002,3.896-0.28,2.985-3.787   c-1.947-7.484-2.664-15.16-3.532-22.8c-1.059-9.321-1.68-18.691-2.71-28.016c-0.72-6.514-1.26-13.021-1.006-19.568   c0.156-4.024,2.965-6.196,5.998-4.31c2.343,1.458,4.265,0.919,6.224,0.086c8.563-3.644,17.369-6.508,26.439-8.554   c1.558-0.351,2.015-1.114,2.472-2.673c2.236-7.642,2.289-15.602,3.756-23.341c0.359-1.896-0.53-2.594-1.949-3.38   c-9.13-5.057-18.638-9.496-26.869-16.045C330.14,272.602,321.401,269.204,314.335,262.858z M171.231,166.819   c0.001,0.076,0.002,0.152,0.002,0.228c-3.482,0-6.964,0-10.446,0c-9.506,0-19.012-0.014-28.517,0.023   c-0.847,0.003-2.369-0.63-1.958,1.344c0.943,4.534,1.017,9.173,1.91,13.741c2.696,13.779,6.058,27.204,12.598,39.857   c12.175,23.556,32.186,36.147,57.086,41.937c9.816,2.283,19.82,4.123,30,4.256c10.97,0.144,21.977,0.918,32.893-0.386   c9.744-1.162,19.122-4.236,28.461-7.13c7.477-2.317,14.281-6.243,20.278-11.359c8.696-7.417,16.538-15.544,22.681-25.337   c4.817-7.681,8.763-15.593,10.474-24.524c2.203-11.488,4.095-23.019,5.262-34.672c0.249-2.487-0.245-2.989-2.612-2.862   c-18.13,0.97-36.289,0.426-54.435,1.2c-29.508,1.259-59.074,0.578-88.575,2.571C194.663,166.495,182.935,166.472,171.231,166.819z    M338.648,480.559c-0.817-1.698-1.573-3.299-2.354-4.887c-6.064-12.319-9.835-25.486-14.129-38.453   c-1.65-4.979-3.014-10.071-4.178-15.187c-0.612-2.691-1.844-3.369-4.491-3.335c-36.199,0.475-72.407-0.66-108.606,0.629   c-9.599,0.344-19.222,0.141-28.831-0.009c-2.4-0.037-3.035,0.516-2.74,2.932c0.262,2.158,0.233,4.394-0.191,6.611   c-1.424,7.442-4.934,14.091-7.999,20.877c-3.862,8.551-8.415,16.766-13.262,24.811c-1.69,2.807-1.487,3.083,1.63,3.181   c7.362,0.233,14.524,2.06,21.845,2.767c8.242,0.795,16.427,2.157,24.737,2.331c5.363,0.112,10.728,0.347,16.08,0.697   c8.064,0.526,16.125,1.114,24.171,1.857c3.211,0.296,3.855-1.303,4.13-4.006c0.74-7.257,0.482-14.526,0.658-21.791   c0.058-2.382,0.593-4.779,1.127-7.12c0.634-2.781,2.267-5.142,5.281-5.009c2.924,0.127,4.344,2.414,5.024,5.29   c2.634,11.13,8.198,20.907,14.316,30.418c0.633,0.983,1.354,1.799,2.51,1.479c2.906-0.807,5.87-0.421,8.8-0.646   c10.673-0.817,21.337-1.779,32.021-2.411c7.775-0.46,15.579-0.48,23.368-0.711C337.843,480.865,338.117,480.719,338.648,480.559z    M260.161,62.133c-1.106-0.141-1.511-0.236-1.915-0.236c-14.469-0.02-28.938-0.056-43.407-0.024   c-3.735,0.009-7.021,0.34-9.617,4.127c-3.492,5.094-8.338,9.163-11.855,14.375c-5.522,8.184-9.146,17.356-14.059,25.826   c-8.193,14.126-10.448,29.655-11.639,45.494c-0.184,2.438-0.475,4.765-1.862,7.23c26.938,0.067,53.49-2.09,80.28-2.728   c-0.816-1.514-1.366-2.866-1.104-4.396c1.393-8.112,1.818-16.357,3.054-24.468c2.253-14.792,4.285-29.624,6.773-44.372   C255.976,76.059,254.729,68.459,260.161,62.133z M251.338,156.261c1.126,0,2.152,0.023,3.177-0.004   c16.661-0.43,33.322-0.846,49.98-1.328c2.337-0.067,6.134,1.107,4.097-3.814c-0.068-0.164,0.047-0.412,0.097-0.616   c2.679-10.984,2.459-22.169,2.286-33.348c-0.053-3.477,0.422-6.99-0.297-10.427c-2.236-10.684-5.664-20.94-11.026-30.511   c-2.105-3.756-5.146-6.984-6.333-11.264c-0.268-0.965-1.292-1.042-2.081-1.178c-8.197-1.407-16.439-2.188-25.099-1.798   c1.472,2.636,1.272,4.798-0.927,6.685c-0.788,0.675-1.094,1.736-1.145,2.86c-0.331,7.178-1.917,14.195-2.815,21.303   c-2.019,15.988-5.298,31.794-6.804,47.868C253.964,145.855,253.824,151.199,251.338,156.261z M194.928,65.736   c-1.694-0.212-2.761,0.575-3.84,1.138c-3.292,1.715-6.796,2.79-10.301,3.968c-9.391,3.157-18.789,6.354-27.473,11.262   c-13.535,7.65-24.397,18.386-34.376,30.07c-3.412,3.994-6.208,8.42-8.094,13.49c-2.236,6.014-3.015,12.23-4.107,18.456   c-0.88,5.019,0.411,10.409-2.767,15.085c19.315,0,38.364,0,57.896,0c-1.609-1.532-2.47-2.912-2.422-4.902   c0.139-5.82,0.869-11.542,1.919-17.264c1.751-9.543,3.047-19.189,7.649-27.943c2.013-3.831,4.211-7.575,6.019-11.499   C180.266,86.242,186.334,75.428,194.928,65.736z M305.968,263.526c-8.249,4.737-16.647,6.35-24.825,8.644   c-8.165,2.291-16.375,4.296-25.895,3.952c7.263,5.146,13.744,9.649,19.535,15.028c4.345,4.036,9.264,7.289,14.149,10.608   c1.978,1.344,2.844,0.888,3.542-1.195c0.802-2.393,1.72-4.75,2.697-7.077C299.157,284,302.736,274.369,305.968,263.526z    M181.89,265.503c0,0.835-0.069,1.152,0.01,1.431c2.625,9.327,5.266,18.649,7.896,27.975c0.569,2.017,1.506,0.694,2.237,0.213   c5.017-3.308,9.715-7.07,14.946-10.083c6.266-3.609,12.564-7.105,20.108-9.18C211.308,273.935,196.23,271.933,181.89,265.503z    M369.957,321.124c12.024-3.598,23.167-6.491,35.15-8.836c-10.914-4.344-21.367-7.636-31.799-13.256   C373.278,306.628,372.53,313.58,369.957,321.124z M79.012,319.106c3.272,0.691,5.591,1.179,7.908,1.67   c6.277,1.328,12.546,2.693,18.838,3.942c0.863,0.172,2.375,1.126,2.463-1.069c0.212-5.284-0.618-10.506-0.866-15.761   c-0.049-1.052-0.623-1.795-1.915-1.154C97,310.912,88.641,315.256,79.012,319.106z M198.57,490.96   c-6.89-0.476-13.638-1.264-20.367-2.193c-1.858-0.257-1.582,0.947-1.503,1.917c0.363,4.449,0.804,8.892,1.26,13.793   C184.726,499.429,191.865,495.688,198.57,490.96z M294.72,490.91c4.204,5.322,9.528,8.284,14.142,12.524   c1.902-5.281,4.905-9.604,9.052-14.203C309.672,489.829,302.539,490.343,294.72,490.91z"/>
	<path fill-rule="evenodd" clip-rule="evenodd" fill="#C29875" d="M409.299,319.627c2.548-3.729,5.096-7.456,7.644-11.184   c5.001-3.373,10.157-6.275,16.284-7.242c5.776-0.911,11.557-1.115,17.354-0.854c2.878,0.13,5.438,1.537,7.953,2.935   c10.546,5.858,17.286,14.457,19.85,26.397c1.919,8.945,4.861,17.687,4.846,26.977c-0.012,5.782-1.696,10.732-6.602,14.283   c-7.604,5.505-16.223,7.603-25.432,8.509c-11.839,1.166-23.288-0.481-34.773-3.055c-8.084-1.811-16.236-11.464-15.513-19.848   c0.884-10.21,1.006-20.47,5.19-30.096C407.104,324.142,408.96,322.239,409.299,319.627z M418.758,349.605   c5.068,0.716,10.137,1.216,15.221,0.132c0.896-0.005,1.791-0.01,2.686-0.014c1.141,0.721,2.463,0.738,3.648,0.493   c4.234-0.87,8.522-0.346,12.771-0.681c1.459-0.178,2.919-0.354,4.378-0.53c4.861-1.432,9.722-2.864,14.584-4.297   c2.88-0.373,3.125-1.811,1.63-3.986c-0.397-0.579-0.714-1.213-1.066-1.822c-1.026-3.858-1.901-7.767-3.122-11.563   c-1.321-4.11-2.988-8.071-6.329-11.099c-6.518-5.904-13.733-9.647-22.88-7.908c-0.718,0.137-1.478,0.021-2.209,0.102   c-6.636,0.729-13.173,2.183-17.234,7.945c-4.295,6.095-8.118,12.606-9.888,19.982c-0.886,3.693-2.017,7.495-0.463,11.34   C413.152,348.723,415.935,349.252,418.758,349.605z"/>
	<path fill-rule="evenodd" clip-rule="evenodd" fill="#E43A36" d="M71.295,314.24c0.443,4.005,0.886,8.008,1.33,12.013   c-0.676,10.177-3.266,14.282-11.073,16.498c-5.019,1.424-10.189,1.747-15.169-0.445c-0.98-0.431-1.667-0.469-2.558,0.23   c-4.192,3.294-9.25,3.88-14.308,4.252c-2.349,0.173-4.609-0.451-6.468-2.071c-6.684-5.825-10.109-13.498-11.119-21.994   c-1.212-10.201,6.237-18.443,16.502-19.268c0.735-0.06,1.472-0.116,2.208-0.175c2.4,1.825,4.937,3.105,8.068,2.043   c0.261,1.721,0.521,3.44,0.83,5.48c-1.673-0.545-3.057-0.969-4.42-1.448c-0.909-0.319-1.761-0.284-2.133,0.666   c-0.39,1,0.414,1.603,1.182,1.93c2.627,1.122,5.329,1.959,8.254,1.579c2.382-0.309,3.589-1.972,4.517-3.938   c0.426-0.901,0.187-1.665-0.685-2.141c-0.872-0.475-1.315,0.092-1.747,0.777c-0.416,0.663-0.509,1.978-1.511,1.705   c-1.087-0.296-1.266-1.585-1.369-2.63c-0.082-0.831,0.017-1.679,0.036-2.519c2.431-1.438,4.651-3.29,7.524-3.86   c1.281-0.255,2.286-0.338,3.007,1.277c2.657,5.955,7.627,8.394,13.824,7.642c2.924-0.355,3.996,0.549,4.616,2.998   C70.756,313.332,71.069,313.775,71.295,314.24z"/>
	<path fill-rule="evenodd" clip-rule="evenodd" fill="#E43A36" d="M279.158,54.199c-6.476,6.865-13.936,5.035-20.025,1.475   c-1-0.584-1.598-0.708-2.426,0.004c-5.24,4.515-13.17,3.359-18.658-1.578c-3.262-4.068-4.749-8.712-4.968-13.921   c-0.488-11.604,10.624-20.677,21.916-17.768c0.497,0.128,1.021,0.151,1.532,0.224c0.665,1.482,1.326,3.382,0.164,4.451   c-1.813,1.667-3.289-0.755-4.988-1.38c0.284,2.828,0.707,3.128,4.18,3.139c4.594,0.014,7.445-1.731,7.787-4.765   c-0.612-0.227-0.955,0.199-1.349,0.538c-0.924,0.794-1.848,2.374-3.037,1.693c-0.892-0.51-1.015-2.215-0.909-3.515   c0.025-0.312,0.124-0.616,0.188-0.924c3.362,0.323,6.083-0.557,7.462-3.966c9.511-1.126,18.031,8.29,17.791,18.025   C283.656,42.466,283.515,48.818,279.158,54.199z"/>
	<path fill-rule="evenodd" clip-rule="evenodd" fill="#834324" d="M41.661,304.785c-0.019,0.84-0.118,1.688-0.036,2.519   c0.103,1.045,0.281,2.334,1.369,2.63c1.002,0.272,1.096-1.042,1.511-1.705c0.431-0.686,0.875-1.252,1.747-0.777   c0.871,0.476,1.111,1.239,0.685,2.141c-0.928,1.967-2.135,3.63-4.517,3.938c-2.925,0.38-5.626-0.457-8.254-1.579   c-0.768-0.327-1.572-0.93-1.182-1.93c0.372-0.95,1.225-0.985,2.133-0.666c1.364,0.479,2.747,0.903,4.42,1.448   c-0.309-2.04-0.569-3.76-0.828-5.48c0.912-1.682,1.906-3.359,0.186-5.135c0.261-0.908,0.505-1.914,1.754-1.719   c1.182,0.185,0.874,1.196,0.898,1.982C41.591,301.896,41.624,303.34,41.661,304.785z"/>
	<path fill-rule="evenodd" clip-rule="evenodd" fill="#6E93A4" d="M38.895,300.188c1.72,1.775,0.726,3.453-0.186,5.135   c-3.133,1.063-5.67-0.218-8.07-2.043c-1.758-2.874-1.148-4.007,2.2-4.268C34.985,298.845,36.892,299.722,38.895,300.188z"/>
	<path fill-rule="evenodd" clip-rule="evenodd" fill="#834324" d="M258.564,21.872c-0.064,0.309-0.163,0.613-0.188,0.924   c-0.105,1.3,0.017,3.005,0.909,3.515c1.189,0.681,2.113-0.899,3.037-1.693c0.395-0.339,0.737-0.765,1.349-0.538   c-0.341,3.034-3.193,4.779-7.787,4.765c-3.474-0.011-3.896-0.311-4.18-3.139c1.7,0.625,3.175,3.047,4.988,1.38   c1.162-1.069,0.501-2.969-0.164-4.451c0.168-2.427-0.41-4.885,0.191-7.515c1.565,0.766,0.804,2.063,1.058,3.012   C257.73,19.443,257.559,20.781,258.564,21.872z"/>
	<path fill-rule="evenodd" clip-rule="evenodd" fill="#6E93A4" d="M258.564,21.872c-1.005-1.09-0.834-2.429-0.786-3.739   c1.753-0.873,3.126-2.462,5.304-2.547c1.743-0.068,2.902,0.351,2.944,2.321C264.647,21.314,261.926,22.194,258.564,21.872z"/>
	<path fill-rule="evenodd" clip-rule="evenodd" fill="#888888" d="M314.335,262.858c7.066,6.346,15.804,9.744,23,15.47   c8.23,6.549,17.738,10.988,26.869,16.045c1.419,0.786,2.309,1.484,1.949,3.38c-1.467,7.739-1.52,15.699-3.756,23.341   c-0.457,1.559-0.914,2.322-2.472,2.673c-9.07,2.046-17.876,4.91-26.439,8.554c-1.959,0.833-3.881,1.372-6.224-0.086   c-3.033-1.887-5.841,0.285-5.998,4.31c-0.254,6.547,0.286,13.055,1.006,19.568c1.03,9.324,1.652,18.694,2.71,28.016   c0.868,7.64,1.585,15.315,3.532,22.8c0.911,3.507,0.638,3.785-2.985,3.787c-22.82,0.005-45.641-0.063-68.46,0.019   c-29.466,0.105-58.933,0.292-88.397,0.551c-2.898,0.026-3.684-0.445-3.141-3.625c2.981-17.461,4.633-35.099,6.287-52.723   c0.344-3.676,0.857-7.288,1.407-10.924c0.773-5.117,0.022-8.431-6.904-8.893c-10.624-0.71-20.955-3.617-31.457-5.317   c-5.306-0.859-10.625-1.648-15.953-2.357c-2.035-0.27-2.816-1.087-2.817-3.25c-0.004-6.933,0.559-13.95-2.027-20.628   c-0.618-1.598,0.684-1.732,1.522-2.206c9.738-5.502,19.488-10.981,29.226-16.483c7.271-4.108,14.11-8.886,20.982-13.609   c1.305-0.897,2.57-1.858,3.919-2.683c3.542-2.164,3.866-1.916,4.944,1.948c2.662,9.543,5.37,19.076,8.269,28.549   c1.596,5.217,5.107,6.579,10.122,4.438c2.563-1.094,4.763-2.761,6.911-4.436c13.085-10.198,27.909-16.433,44.078-19.722   c1.589-0.323,2.778-0.042,4.07,0.945c8.464,6.474,17.151,12.642,25.163,19.719c4.173,3.687,8.921,6.744,13.533,9.905   c5.205,3.568,8.894,2.65,11.341-3.161c5.847-13.89,11.753-27.772,15.576-42.412C313.828,263.956,314.037,263.581,314.335,262.858z"/>
	<path fill-rule="evenodd" clip-rule="evenodd" fill="#FDFDFD" d="M171.231,166.819c11.703-0.347,23.432-0.324,35.104-1.113   c29.5-1.994,59.067-1.313,88.575-2.571c18.146-0.774,36.305-0.229,54.435-1.2c2.367-0.127,2.861,0.375,2.612,2.862   c-1.167,11.653-3.059,23.184-5.262,34.672c-1.711,8.932-5.657,16.843-10.474,24.524c-6.143,9.793-13.985,17.92-22.681,25.337   c-5.998,5.116-12.801,9.042-20.278,11.359c-9.34,2.895-18.718,5.968-28.461,7.13c-10.917,1.304-21.923,0.529-32.893,0.386   c-10.18-0.134-20.185-1.974-30-4.256c-24.9-5.789-44.911-18.381-57.086-41.937c-6.54-12.653-9.901-26.078-12.598-39.857   c-0.894-4.568-0.967-9.207-1.91-13.741c-0.411-1.975,1.111-1.341,1.958-1.344c9.505-0.037,19.011-0.023,28.517-0.023   c3.482,0,6.964,0,10.446,0C171.233,166.971,171.232,166.895,171.231,166.819z M261.411,235.841   c-0.169-1.463-0.147-2.981-0.546-4.378c-0.979-3.424-2.45-6.895-6.123-7.894c-6.443-1.751-15.146,0.555-16.389,9.849   c-0.643,4.81-0.355,9.826,3.88,13.313c4.324,3.561,8.797,1.775,13.01-0.314C259.508,244.302,261.596,240.702,261.411,235.841z    M199.03,198.789c-4.266,0.024-7.853,3.679-7.777,7.924c0.076,4.255,3.79,7.82,8.019,7.695c4.137-0.123,7.603-3.657,7.625-7.776   C206.919,202.392,203.281,198.764,199.03,198.789z M287.523,192.919c-4.386,0.043-7.714,3.488-7.631,7.9   c0.08,4.244,3.414,7.512,7.684,7.533c4.421,0.022,7.802-3.339,7.789-7.743C295.351,196.2,291.963,192.875,287.523,192.919z"/>
	<path fill-rule="evenodd" clip-rule="evenodd" fill="#303030" d="M338.648,480.559c-0.531,0.16-0.805,0.306-1.084,0.314   c-7.789,0.23-15.592,0.251-23.368,0.711c-10.684,0.632-21.348,1.594-32.021,2.411c-2.93,0.226-5.894-0.16-8.8,0.646   c-1.155,0.32-1.877-0.495-2.51-1.479c-6.118-9.511-11.682-19.288-14.316-30.418c-0.68-2.876-2.1-5.163-5.024-5.29   c-3.014-0.133-4.647,2.228-5.281,5.009c-0.534,2.341-1.069,4.738-1.127,7.12c-0.176,7.265,0.082,14.534-0.658,21.791   c-0.275,2.703-0.919,4.302-4.13,4.006c-8.046-0.743-16.107-1.331-24.171-1.857c-5.352-0.351-10.717-0.585-16.08-0.697   c-8.311-0.174-16.495-1.536-24.737-2.331c-7.32-0.707-14.482-2.533-21.845-2.767c-3.117-0.098-3.32-0.374-1.63-3.181   c4.847-8.045,9.399-16.26,13.262-24.811c3.065-6.786,6.574-13.435,7.999-20.877c0.425-2.218,0.454-4.453,0.191-6.611   c-0.294-2.416,0.34-2.969,2.74-2.932c9.609,0.149,19.232,0.353,28.831,0.009c36.199-1.289,72.407-0.154,108.606-0.629   c2.646-0.034,3.879,0.644,4.491,3.335c1.164,5.115,2.528,10.207,4.178,15.187c4.294,12.967,8.065,26.134,14.129,38.453   C337.076,477.26,337.831,478.861,338.648,480.559z"/>
	<path fill-rule="evenodd" clip-rule="evenodd" fill="#888888" d="M260.161,62.133c-5.433,6.326-4.186,13.925-5.351,20.828   c-2.488,14.748-4.52,29.58-6.773,44.372c-1.236,8.111-1.662,16.356-3.054,24.468c-0.262,1.531,0.288,2.882,1.104,4.396   c-26.79,0.638-53.342,2.795-80.28,2.728c1.387-2.465,1.678-4.792,1.862-7.23c1.19-15.839,3.446-31.368,11.639-45.494   c4.913-8.47,8.537-17.642,14.059-25.826c3.517-5.212,8.363-9.281,11.855-14.375c2.596-3.788,5.882-4.119,9.617-4.127   c14.469-0.032,28.938,0.005,43.407,0.024C258.65,61.897,259.055,61.993,260.161,62.133z"/>
	<path fill-rule="evenodd" clip-rule="evenodd" fill="#888888" d="M251.338,156.261c2.486-5.062,2.626-10.405,3.11-15.571   c1.506-16.074,4.785-31.88,6.804-47.868c0.898-7.108,2.484-14.125,2.815-21.303c0.051-1.124,0.357-2.185,1.145-2.86   c2.199-1.886,2.398-4.048,0.927-6.685c8.659-0.39,16.902,0.391,25.099,1.798c0.789,0.135,1.813,0.212,2.081,1.178   c1.188,4.28,4.228,7.508,6.333,11.264c5.362,9.57,8.79,19.827,11.026,30.511c0.72,3.437,0.244,6.95,0.297,10.427   c0.173,11.178,0.393,22.364-2.286,33.348c-0.05,0.205-0.165,0.452-0.097,0.616c2.037,4.921-1.76,3.747-4.097,3.814   c-16.658,0.481-33.319,0.897-49.98,1.328C253.49,156.284,252.464,156.261,251.338,156.261z"/>
	<path fill-rule="evenodd" clip-rule="evenodd" fill="#888888" d="M194.928,65.736c-8.594,9.691-14.662,20.506-19.896,31.862   c-1.808,3.924-4.006,7.668-6.019,11.499c-4.602,8.754-5.897,18.399-7.649,27.943c-1.05,5.722-1.781,11.443-1.919,17.264   c-0.048,1.99,0.813,3.37,2.422,4.902c-19.533,0-38.581,0-57.896,0c3.177-4.676,1.886-10.066,2.767-15.085   c1.092-6.226,1.871-12.442,4.107-18.456c1.886-5.07,4.682-9.497,8.094-13.49c9.979-11.684,20.841-22.419,34.376-30.07   c8.684-4.909,18.083-8.105,27.473-11.262c3.505-1.178,7.009-2.253,10.301-3.968C192.167,66.312,193.234,65.524,194.928,65.736z"/>
	<path fill-rule="evenodd" clip-rule="evenodd" fill="#888888" d="M303.523,66.728c7.213,0.634,13.473,4.013,19.877,6.95   c3.068,1.408,6.103,2.899,9.084,4.479c17.489,9.265,30.293,23.028,38.569,40.921c2.767,5.982,3.391,12.611,3.854,19.134   c0.314,4.417,0.049,8.873,0.145,13.308c0.034,1.569-0.349,2.238-2.093,2.238c-18.166-0.007-36.316,1.048-54.487,0.82   c-1.662-0.021-2.665,0.105-2.106-2.354c3.45-15.198,3.229-30.737,1.885-46.01c-1.148-13.052-6.534-25.259-13.436-36.57   c-0.536-0.879-1.474-1.565-1.478-2.737L303.523,66.728z"/>
	<path fill-rule="evenodd" clip-rule="evenodd" fill="#FAFAFA" d="M305.968,263.526c-3.232,10.842-6.811,20.473-10.796,29.96   c-0.977,2.327-1.895,4.685-2.697,7.077c-0.698,2.083-1.564,2.539-3.542,1.195c-4.885-3.319-9.805-6.572-14.149-10.608   c-5.791-5.379-12.272-9.883-19.535-15.028c9.52,0.344,17.729-1.661,25.895-3.952C289.32,269.876,297.719,268.263,305.968,263.526z"/>
	<path fill-rule="evenodd" clip-rule="evenodd" fill="#FAFAFA" d="M181.89,265.503c14.34,6.43,29.418,8.432,45.197,10.355   c-7.544,2.074-13.842,5.57-20.108,9.18c-5.23,3.013-9.929,6.775-14.946,10.083c-0.731,0.481-1.668,1.804-2.237-0.213   c-2.63-9.325-5.271-18.647-7.896-27.975C181.821,266.656,181.89,266.338,181.89,265.503z"/>
	<path fill-rule="evenodd" clip-rule="evenodd" fill="#FAFAFA" d="M369.957,321.124c2.573-7.544,3.321-14.495,3.351-22.092   c10.432,5.62,20.885,8.912,31.799,13.256C393.124,314.632,381.98,317.526,369.957,321.124z"/>
	<path fill-rule="evenodd" clip-rule="evenodd" fill="#FAFAFA" d="M79.012,319.106c9.628-3.85,17.988-8.194,26.429-12.372   c1.292-0.641,1.865,0.103,1.915,1.154c0.249,5.255,1.079,10.477,0.866,15.761c-0.088,2.195-1.6,1.241-2.463,1.069   c-6.292-1.249-12.562-2.614-18.838-3.942C84.603,320.285,82.285,319.797,79.012,319.106z"/>
	<path fill-rule="evenodd" clip-rule="evenodd" fill="#FAFAFA" d="M198.57,490.96c-6.706,4.728-13.845,8.469-20.61,13.517   c-0.456-4.901-0.897-9.344-1.26-13.793c-0.079-0.97-0.355-2.174,1.503-1.917C184.932,489.697,191.68,490.485,198.57,490.96z"/>
	<path fill-rule="evenodd" clip-rule="evenodd" fill="#FAFAFA" d="M294.72,490.91c7.819-0.566,14.952-1.081,23.194-1.679   c-4.147,4.599-7.15,8.922-9.052,14.203C304.248,499.194,298.924,496.232,294.72,490.91z"/>
	<path fill-rule="evenodd" clip-rule="evenodd" fill="#FEFEFE" d="M98.394,157.797c0.135,0.303,0.864,0.418,0.425,0.855   c-0.264,0.263-0.785,0.131-1.075-0.262C97.961,158.192,98.178,157.995,98.394,157.797z"/>
	<path fill-rule="evenodd" clip-rule="evenodd" fill="#888888" d="M303.337,66.907c-0.078-0.125-0.156-0.25-0.234-0.375   c0.139,0.067,0.277,0.135,0.417,0.199C303.523,66.728,303.337,66.907,303.337,66.907z"/>
	<path fill-rule="evenodd" clip-rule="evenodd" fill="#E86B57" d="M453.083,349.534c-4.248,0.337-8.536-0.188-12.771,0.683   c-1.186,0.245-2.508,0.228-3.65-0.494c-0.27-5.446,1.166-7.565,5.625-8.301c1.342,2.479,3.23,2.668,6.37,0.634   c1.618-0.236,2.559,0.499,3.508,1.836C453.462,345.715,452.727,347.671,453.083,349.534z"/>
	<path fill-rule="evenodd" clip-rule="evenodd" fill="#E43A36" d="M442.287,341.421c-4.459,0.735-5.895,2.854-5.625,8.301   c-0.893,0.005-1.788,0.01-2.682,0.014c-0.244-2.985-1.275-5.426-4.434-6.388c-0.93-0.279-1.438,1.122-2.488,0.652   c-0.26-1.382,1.017-2.769-0.063-4.084c1.85-2.159,4.262-2.962,7.025-2.926c0.58,1.655-0.768,2.449-1.896,3.45   c1.771,0.554,3.12,0.631,4.337-0.535c1.381-1.321-0.959-1.833-0.586-2.915c2.97-0.006,5.695,2.161,8.796,0.993   C444.897,339.837,445.238,341.771,442.287,341.421z"/>
	<path fill-rule="evenodd" clip-rule="evenodd" fill="#E86B57" d="M472.045,344.708c-4.862,1.433-9.723,2.865-14.584,4.297   c-0.041-3.261-0.621-6.754,3.539-8.204c2.485,2.775,4.484,1.082,6.472-0.705C470.416,340.225,471.995,341.708,472.045,344.708z"/>
	<path fill-rule="evenodd" clip-rule="evenodd" fill="#E43A36" d="M460.999,340.801c-4.159,1.45-3.579,4.943-3.538,8.204   c-1.459,0.177-2.919,0.353-4.378,0.528c-0.356-1.862,0.379-3.818-0.918-5.643c-0.949-1.337-1.89-2.072-3.508-1.836   c-0.13-0.569-0.162-1.294-1.047-1.028c-1.202,0.361-1.388-0.274-1.318-1.229c1.469-0.2,3.068,0.222,4.337-0.923   c2.579,2.949,5.027,4,7.871,0.103c0.922-1.265,2.872-1.637,4.612-1.646C463.662,339.253,462.981,340.423,460.999,340.801z"/>
	<path fill-rule="evenodd" clip-rule="evenodd" fill="#E86B57" d="M429.547,343.348c3.158,0.962,4.189,3.402,4.434,6.388   c-5.086,1.085-10.154,0.585-15.223-0.131c0.963-2.155,1.328-4.844,4.488-5.043c1.013,2.234,2.992,1.212,4.56,1.217   C429.166,345.783,429.663,344.666,429.547,343.348z"/>
	<path fill-rule="evenodd" clip-rule="evenodd" fill="#E43A36" d="M423.246,344.562c-3.16,0.199-3.525,2.888-4.488,5.043   c-2.823-0.353-5.605-0.882-8.274-1.906c0.243-0.329,0.413-0.796,0.739-0.969c4.482-2.369,9.022-4.616,13.862-6.184   c0.019,0.92,0.037,1.839,0.056,2.758c-0.743,0.061-1.599-0.117-1.895,0.893C423.291,344.319,423.291,344.441,423.246,344.562z"/>
	<path fill-rule="evenodd" clip-rule="evenodd" fill="#E43A36" d="M472.045,344.708c-0.05-3-1.629-4.483-4.572-4.611   c0.202-3.827-1.613-0.096-2.449-0.727c0-0.681,0-1.478,0-2.273c2.76-0.379,5.193,0.621,7.585,1.802   c0.353,0.61,0.669,1.244,1.066,1.823C475.17,342.898,474.925,344.335,472.045,344.708z"/>
	<path fill-rule="evenodd" clip-rule="evenodd" fill="#303030" d="M261.411,235.841c0.185,4.861-1.903,8.461-6.167,10.575   c-4.213,2.089-8.686,3.875-13.01,0.314c-4.235-3.487-4.523-8.503-3.88-13.313c1.243-9.294,9.946-11.6,16.389-9.849   c3.672,0.999,5.144,4.47,6.123,7.894C261.264,232.86,261.242,234.378,261.411,235.841z M241.073,237.022   c0.217,2.027-0.243,5.597,3.17,7.77c3.769,2.399,11.013,0.141,13.452-4.18c2.242-3.973,0.301-12.579-3.239-14.344   c-0.186-0.092-0.383-0.183-0.584-0.214C246.51,224.94,240.64,228.101,241.073,237.022z"/>
	<path fill-rule="evenodd" clip-rule="evenodd" fill="#161515" d="M199.03,198.789c4.251-0.025,7.89,3.603,7.867,7.843   c-0.022,4.119-3.488,7.653-7.625,7.776c-4.229,0.125-7.943-3.44-8.019-7.695C191.177,202.468,194.764,198.813,199.03,198.789z"/>
	<path fill-rule="evenodd" clip-rule="evenodd" fill="#161515" d="M287.523,192.919c4.439-0.044,7.828,3.28,7.841,7.691   c0.013,4.403-3.368,7.765-7.789,7.743c-4.27-0.021-7.604-3.29-7.684-7.533C279.809,196.408,283.137,192.962,287.523,192.919z"/>
	<path fill-rule="evenodd" clip-rule="evenodd" fill="#834324" d="M465.023,337.097c0,0.796,0,1.593,0,2.273   c0.836,0.631,2.651-3.101,2.449,0.727c-1.988,1.786-3.987,3.479-6.473,0.704c1.981-0.378,2.662-1.548,2.112-3.47   c0.336-0.857,0.673-1.713,1.011-2.576C465.815,335.172,464.437,336.457,465.023,337.097z"/>
	<path fill-rule="evenodd" clip-rule="evenodd" fill="#834324" d="M425.141,343.304c-0.019-0.919-0.037-1.838-0.056-2.758   c0.355-1.07,0.983-1.309,1.911-0.63c1.079,1.315-0.197,2.702,0.063,4.084c1.051,0.47,1.559-0.932,2.488-0.652   c0.116,1.317-0.381,2.435-1.741,2.431c-1.567-0.005-3.547,1.018-4.56-1.217c0.045-0.121,0.045-0.243,0-0.368   C423.885,343.912,424.77,344.155,425.141,343.304z"/>
	<path fill-rule="evenodd" clip-rule="evenodd" fill="#834324" d="M446.292,339.798c-0.069,0.954,0.116,1.59,1.318,1.229   c0.885-0.266,0.917,0.459,1.047,1.028c-3.14,2.034-5.028,1.846-6.37-0.634c2.951,0.35,2.61-1.584,2.386-3.438   c0.715-2.891,1.645-0.854,2.517-0.11C446.752,338.451,446.116,338.935,446.292,339.798z"/>
	<path fill-rule="evenodd" clip-rule="evenodd" fill="#834324" d="M435.877,336.991c-0.373,1.082,1.967,1.594,0.586,2.915   c-1.217,1.166-2.566,1.089-4.337,0.535c1.128-1.001,2.476-1.795,1.896-3.45C434.641,335.81,435.26,335.819,435.877,336.991z"/>
	<path fill-rule="evenodd" clip-rule="evenodd" fill="#6E93A4" d="M446.292,339.798c-0.176-0.863,0.46-1.348,0.897-1.925   c1.477-0.796,3.108-2.13,3.439,1.002C449.36,340.02,447.761,339.598,446.292,339.798z"/>
	<path fill-rule="evenodd" clip-rule="evenodd" fill="#E86B57" d="M425.139,343.304c-0.369,0.851-1.254,0.607-1.893,0.89   C423.542,343.187,424.397,343.365,425.139,343.304z"/>
	<path fill-rule="evenodd" clip-rule="evenodd" fill="#FDFDFD" d="M241.073,237.022c-0.433-8.921,5.437-12.083,12.799-10.968   c0.201,0.031,0.398,0.122,0.584,0.214c3.54,1.765,5.481,10.371,3.239,14.344c-2.439,4.321-9.684,6.58-13.452,4.18   C240.83,242.619,241.29,239.05,241.073,237.022z"/>
</g>
</svg>